<svg width="20" height="19" viewBox="0 0 20 19" fill="none" xmlns="http://www.w3.org/2000/svg">
<path d="M7.1875 1.875H12.8125C12.9844 1.875 13.125 2.01562 13.125 2.1875V3.75H6.875V2.1875C6.875 2.01562 7.01562 1.875 7.1875 1.875ZM5 2.1875V3.75H2.5C1.12109 3.75 0 4.87109 0 6.25V10H7.5H12.5H20V6.25C20 4.87109 18.8789 3.75 17.5 3.75H15V2.1875C15 0.980469 14.0195 0 12.8125 0H7.1875C5.98047 0 5 0.980469 5 2.1875ZM20 11.25H12.5V12.5C12.5 13.1914 11.9414 13.75 11.25 13.75H8.75C8.05859 13.75 7.5 13.1914 7.5 12.5V11.25H0V16.25C0 17.6289 1.12109 18.75 2.5 18.75H17.5C18.8789 18.75 20 17.6289 20 16.25V11.25Z" fill="#16A34A"/>
</svg>
