<svg width="32" height="30" viewBox="0 0 32 30" fill="none" xmlns="http://www.w3.org/2000/svg">
<path d="M13.752 2.50195L11.543 3.32812C11.3672 3.39258 11.25 3.5625 11.25 3.75C11.25 3.9375 11.3672 4.10742 11.543 4.17188L13.752 4.99805L14.5781 7.20703C14.6426 7.38281 14.8125 7.5 15 7.5C15.1875 7.5 15.3574 7.38281 15.4219 7.20703L16.248 4.99805L18.457 4.17188C18.6328 4.10742 18.75 3.9375 18.75 3.75C18.75 3.5625 18.6328 3.39258 18.457 3.32812L16.248 2.50195L15.4219 0.292969C15.3574 0.117188 15.1875 0 15 0C14.8125 0 14.6426 0.117188 14.5781 0.292969L13.752 2.50195ZM2.70117 23.168C1.60547 24.2637 1.60547 26.0449 2.70117 27.1465L4.72852 29.1738C5.82422 30.2695 7.60547 30.2695 8.70703 29.1738L31.0488 6.82617C32.1445 5.73047 32.1445 3.94922 31.0488 2.84766L29.0215 0.826172C27.9258 -0.269531 26.1445 -0.269531 25.043 0.826172L2.70117 23.168ZM28.3945 4.83984L22.2422 10.9922L20.877 9.62695L27.0293 3.47461L28.3945 4.83984ZM0.439453 6.86719C0.175781 6.9668 0 7.21875 0 7.5C0 7.78125 0.175781 8.0332 0.439453 8.13281L3.75 9.375L4.99219 12.6855C5.0918 12.9492 5.34375 13.125 5.625 13.125C5.90625 13.125 6.1582 12.9492 6.25781 12.6855L7.5 9.375L10.8105 8.13281C11.0742 8.0332 11.25 7.78125 11.25 7.5C11.25 7.21875 11.0742 6.9668 10.8105 6.86719L7.5 5.625L6.25781 2.31445C6.1582 2.05078 5.90625 1.875 5.625 1.875C5.34375 1.875 5.0918 2.05078 4.99219 2.31445L3.75 5.625L0.439453 6.86719ZM21.0645 21.8672C20.8008 21.9668 20.625 22.2188 20.625 22.5C20.625 22.7812 20.8008 23.0332 21.0645 23.1328L24.375 24.375L25.6172 27.6855C25.7168 27.9492 25.9688 28.125 26.25 28.125C26.5312 28.125 26.7832 27.9492 26.8828 27.6855L28.125 24.375L31.4355 23.1328C31.6992 23.0332 31.875 22.7812 31.875 22.5C31.875 22.2188 31.6992 21.9668 31.4355 21.8672L28.125 20.625L26.8828 17.3145C26.7832 17.0508 26.5312 16.875 26.25 16.875C25.9688 16.875 25.7168 17.0508 25.6172 17.3145L24.375 20.625L21.0645 21.8672Z" fill="#2563EB"/>
</svg>
