<svg width="182" height="38" viewBox="0 0 182 38" fill="none" xmlns="http://www.w3.org/2000/svg">
<g clip-path="url(#clip0_3753_1788)">
<mask id="mask0_3753_1788" style="mask-type:luminance" maskUnits="userSpaceOnUse" x="0" y="0" width="38" height="38">
<path d="M0 0H38V38H0V0Z" fill="white"/>
</mask>
<g mask="url(#mask0_3753_1788)">
<mask id="mask1_3753_1788" style="mask-type:luminance" maskUnits="userSpaceOnUse" x="0" y="0" width="38" height="38">
<path d="M0 0H38V38H0V0Z" fill="white"/>
</mask>
<g mask="url(#mask1_3753_1788)">
<path fill-rule="evenodd" clip-rule="evenodd" d="M38 8.58087V36.0003C38 37.1046 36.8649 38 35.4663 38H2.53374C1.13387 38 0 37.1058 0 35.9991V2.00094C0 0.895375 1.13387 0 2.53374 0H26.6L29.1337 6.99913L38 8.58087Z" fill="url(#paint0_linear_3753_1788)"/>
<path fill-rule="evenodd" clip-rule="evenodd" d="M26.5996 8.58087L26.6008 0L38.0008 8.58087H26.5996Z" fill="url(#paint1_linear_3753_1788)"/>
<path d="M12.3484 28.6261C12.3484 28.9253 12.2822 29.1355 12.1474 29.2555C12.0248 29.3659 11.8078 29.4193 11.4989 29.4193H8.2052C7.89507 29.4193 7.6732 29.3647 7.54081 29.2555C7.41701 29.1355 7.35449 28.9253 7.35449 28.6261V11.9726C7.35449 10.9751 7.44643 10.1866 7.63275 9.60709C7.82888 9.01809 8.19907 8.60009 8.74701 8.3519C9.30352 8.09184 10.1126 7.9624 11.1741 7.9624H15.2708C20.652 7.9624 23.3427 9.96215 23.3427 13.9628C23.3427 15.18 23.1306 16.1775 22.7089 16.9553C22.286 17.7332 21.7602 18.3423 21.1326 18.7805C20.5594 19.1803 19.9357 19.5071 19.2767 19.7531V19.8279C20.0156 20.3097 20.677 20.8948 21.2392 21.564C21.8778 22.2848 22.4478 23.0603 22.9406 23.8832C23.4469 24.7109 23.8722 25.5338 24.224 26.3532C24.5746 27.1607 24.8161 27.8839 24.9509 28.5228C25.0122 28.822 25.0122 29.0453 24.9509 29.1949C24.8995 29.3445 24.7229 29.4205 24.4251 29.4205H20.8531C20.5846 29.4205 20.348 29.3647 20.1421 29.2543C19.946 29.145 19.7658 28.8909 19.6003 28.4919C18.8182 26.5872 17.916 25.0351 16.8949 23.8381C15.8738 22.6316 14.8895 21.665 13.9408 20.9358C13.3327 20.4668 13.0287 20.1331 13.0287 19.9336C13.0287 19.7733 13.1268 19.5536 13.3229 19.2745C13.4873 19.0576 13.668 18.8528 13.8635 18.6618C14.1026 18.4219 14.3073 18.2414 14.4838 18.1227C14.61 18.0277 14.751 17.9528 14.9006 17.8982C15.0679 17.8624 15.2392 17.8473 15.4105 17.8531C16.1729 17.8531 16.8079 17.5978 17.3129 17.0895C17.8278 16.5801 18.0852 15.7773 18.0852 14.6801C18.0852 13.6434 17.8118 12.8846 17.2664 12.4072C16.7307 11.9168 15.9866 11.6722 15.0391 11.6722H14.1124C13.432 11.6722 12.9675 11.8123 12.7198 12.0913C12.4735 12.3716 12.3484 12.8513 12.3484 13.5282V28.6261Z" fill="white"/>
<path d="M17.547 23.9032C15.5207 23.4128 9.94697 24.1063 9.31445 24.516C13.747 24.516 16.2807 25.1287 19.447 26.3542L17.547 23.9032Z" fill="white"/>
</g>
<path d="M30.9008 28.9113C30.9008 29.1035 30.8497 29.2368 30.7462 29.3133C30.6512 29.3839 30.4843 29.4192 30.2468 29.4192H27.7966C27.5591 29.4192 27.3886 29.3839 27.2851 29.3143C27.1901 29.2368 27.1426 29.1035 27.1426 28.9123V20.1208C27.1426 19.9286 27.1913 19.7972 27.2851 19.7285C27.3886 19.651 27.5591 19.6128 27.7966 19.6128H30.2468C30.4843 19.6128 30.6512 19.652 30.7462 19.7275C30.8497 19.7981 30.9008 19.9286 30.9008 20.1198V28.9113Z" fill="white"/>
<path d="M28.9813 18.272C29.9968 18.272 30.82 17.4745 30.82 16.4907C30.82 15.507 29.9968 14.7095 28.9813 14.7095C27.9658 14.7095 27.1426 15.507 27.1426 16.4907C27.1426 17.4745 27.9658 18.272 28.9813 18.272Z" fill="white"/>
</g>
</g>
<path d="M55.4835 25V8.0375H62.0155C63.7252 8.0375 65.0093 8.4285 65.868 9.2105C66.7267 9.9925 67.156 11.1425 67.156 12.6605C67.156 13.5498 66.9873 14.305 66.65 14.926C66.3127 15.547 65.9025 16.0262 65.4195 16.3635C64.9365 16.7008 64.4765 16.8925 64.0395 16.9385C64.4842 16.9692 64.9135 17.0842 65.3275 17.2835C65.7415 17.4828 66.0788 17.7972 66.3395 18.2265C66.6078 18.6482 66.742 19.2193 66.742 19.94C66.742 20.515 66.742 21.09 66.742 21.665C66.742 22.2323 66.742 22.8035 66.742 23.3785C66.742 23.7388 66.7727 24.0723 66.834 24.379C66.8953 24.678 66.972 24.885 67.064 25H64.0165C63.9398 24.862 63.8708 24.6512 63.8095 24.3675C63.7558 24.0762 63.729 23.7465 63.729 23.3785C63.729 22.8572 63.729 22.3473 63.729 21.849C63.729 21.343 63.729 20.8255 63.729 20.2965C63.729 19.5988 63.5335 19.0698 63.1425 18.7095C62.7515 18.3492 62.1612 18.169 61.3715 18.169H57.634L58.439 17.1455V25H55.4835ZM58.439 16.8925L57.634 15.754H61.3945C61.8928 15.754 62.3413 15.639 62.74 15.409C63.1387 15.1713 63.453 14.8417 63.683 14.42C63.9207 13.9983 64.0395 13.5038 64.0395 12.9365C64.0395 12.1085 63.8018 11.4875 63.3265 11.0735C62.8512 10.6595 62.1765 10.4525 61.3025 10.4525H57.5535L58.439 9.383V16.8925ZM70.9553 19.871V17.7205H79.4998L79.1548 18.2955C79.1548 18.2495 79.1548 18.1997 79.1548 18.146C79.1548 18.0847 79.1548 18.0348 79.1548 17.9965C79.1548 17.4675 79.036 16.973 78.7983 16.513C78.5606 16.0453 78.2003 15.6697 77.7173 15.386C77.2343 15.0947 76.621 14.949 75.8773 14.949C75.1413 14.949 74.5011 15.1062 73.9568 15.4205C73.4201 15.7272 73.0023 16.1718 72.7033 16.7545C72.412 17.3372 72.2663 18.0348 72.2663 18.8475C72.2663 19.6832 72.4081 20.4038 72.6918 21.0095C72.9755 21.6075 73.3895 22.0675 73.9338 22.3895C74.4858 22.7038 75.1566 22.861 75.9463 22.861C76.483 22.861 76.9468 22.8112 77.3378 22.7115C77.7288 22.6118 78.047 22.4777 78.2923 22.309C78.5453 22.1327 78.7331 21.9448 78.8558 21.7455C78.9861 21.5462 79.0628 21.3468 79.0858 21.1475H82.0988C82.0528 21.6612 81.8803 22.1633 81.5813 22.654C81.29 23.137 80.8798 23.5778 80.3508 23.9765C79.8218 24.3675 79.1778 24.6818 78.4188 24.9195C77.6675 25.1495 76.8088 25.2645 75.8428 25.2645C74.5318 25.2645 73.3856 24.9962 72.4043 24.4595C71.423 23.9228 70.6563 23.1753 70.1043 22.217C69.56 21.2587 69.2878 20.1623 69.2878 18.928C69.2878 17.663 69.5638 16.5552 70.1158 15.6045C70.6755 14.6538 71.4498 13.914 72.4388 13.385C73.4278 12.8483 74.5625 12.58 75.8428 12.58C77.1615 12.58 78.3 12.8483 79.2583 13.385C80.2243 13.9217 80.968 14.6692 81.4893 15.6275C82.0106 16.5782 82.2713 17.686 82.2713 18.951C82.2713 19.112 82.2675 19.2845 82.2598 19.4685C82.2521 19.6525 82.2406 19.7867 82.2253 19.871H70.9553ZM89.8133 25.253C89.085 25.253 88.3912 25.1725 87.7318 25.0115C87.0802 24.8505 86.4975 24.609 85.9838 24.287C85.4778 23.965 85.0753 23.5663 84.7763 23.091C84.485 22.608 84.3393 22.0522 84.3393 21.4235C84.3393 21.3775 84.3393 21.3315 84.3393 21.2855C84.3393 21.2395 84.3393 21.1973 84.3393 21.159H87.3523C87.3523 21.1973 87.3523 21.2318 87.3523 21.2625C87.3523 21.2855 87.3523 21.32 87.3523 21.366C87.3523 21.8643 87.5785 22.24 88.0308 22.493C88.4908 22.7383 89.1157 22.861 89.9053 22.861C90.3347 22.861 90.7372 22.815 91.1128 22.723C91.4962 22.631 91.8028 22.4892 92.0328 22.2975C92.2705 22.1058 92.3893 21.8605 92.3893 21.5615C92.3893 21.0785 92.1402 20.7335 91.6418 20.5265C91.1512 20.3195 90.3768 20.1317 89.3188 19.963C88.7362 19.8633 88.1612 19.7292 87.5938 19.5605C87.0265 19.3918 86.509 19.1657 86.0413 18.882C85.5813 18.5983 85.2095 18.2457 84.9258 17.824C84.6498 17.4023 84.5118 16.8887 84.5118 16.283C84.5118 15.478 84.7495 14.8033 85.2248 14.259C85.7078 13.707 86.3518 13.2892 87.1568 13.0055C87.9695 12.7218 88.8627 12.58 89.8363 12.58C90.7717 12.58 91.6418 12.7333 92.4468 13.04C93.2518 13.3467 93.8997 13.7875 94.3903 14.3625C94.8887 14.9375 95.1378 15.6313 95.1378 16.444C95.1378 16.4747 95.1378 16.5092 95.1378 16.5475C95.1378 16.5782 95.1378 16.605 95.1378 16.628H92.1478C92.1478 16.605 92.1478 16.582 92.1478 16.559C92.1478 16.536 92.1478 16.5092 92.1478 16.4785C92.1478 16.1258 92.0367 15.8383 91.8143 15.616C91.592 15.3937 91.3045 15.2288 90.9518 15.1215C90.5992 15.0142 90.2273 14.9605 89.8363 14.9605C89.4913 14.9605 89.1348 14.9988 88.7668 15.0755C88.3988 15.1445 88.0922 15.271 87.8468 15.455C87.6015 15.6313 87.4788 15.8805 87.4788 16.2025C87.4788 16.5092 87.6053 16.7583 87.8583 16.95C88.1113 17.1417 88.464 17.3027 88.9163 17.433C89.3687 17.5557 89.89 17.6668 90.4803 17.7665C91.04 17.8585 91.6035 17.985 92.1708 18.146C92.7458 18.307 93.271 18.5217 93.7463 18.79C94.2217 19.0583 94.605 19.411 94.8963 19.848C95.1953 20.2773 95.3448 20.8102 95.3448 21.4465C95.3448 22.1212 95.1915 22.6962 94.8848 23.1715C94.5782 23.6468 94.1603 24.0417 93.6313 24.356C93.11 24.6627 92.5197 24.8888 91.8603 25.0345C91.201 25.1802 90.5187 25.253 89.8133 25.253ZM102.348 25.23C101.481 25.23 100.761 25.0843 100.186 24.793C99.6185 24.5017 99.17 24.1183 98.8403 23.643C98.5183 23.1677 98.2883 22.6425 98.1503 22.0675C98.02 21.4925 97.9548 20.9175 97.9548 20.3425C97.9548 20.0588 97.9548 19.7637 97.9548 19.457C97.9548 19.1503 97.9548 18.8398 97.9548 18.5255V12.787H100.991V18.054C100.991 18.33 100.991 18.5945 100.991 18.8475C100.991 19.1005 100.991 19.3382 100.991 19.5605C100.991 20.1048 101.056 20.6108 101.186 21.0785C101.317 21.5385 101.554 21.9103 101.899 22.194C102.252 22.4777 102.746 22.6195 103.383 22.6195C103.988 22.6195 104.51 22.4432 104.947 22.0905C105.384 21.7302 105.721 21.2778 105.959 20.7335C106.204 20.1892 106.327 19.6372 106.327 19.0775L107.362 19.7675C107.362 20.5112 107.247 21.2127 107.017 21.872C106.787 22.5237 106.453 23.1025 106.016 23.6085C105.579 24.1145 105.05 24.5132 104.429 24.8045C103.816 25.0882 103.122 25.23 102.348 25.23ZM106.327 25V12.787H109.351V25H106.327ZM111.779 19.4225V17.548H120.025V19.4225H111.779ZM134.841 8.0375H139.993V25H137.107V9.9695L137.176 9.9925L133.53 25H129.482L125.791 9.981L125.86 9.9465V25H122.973V8.0375H128.125L131.564 23.344H131.368L134.841 8.0375ZM144.911 10.4525L146.28 8.946V16.191L145.567 15.2825H151.915V17.6975H145.567L146.28 16.8005V24.0915L144.911 22.585H153.191V25H143.232V8.0375H153.191V10.4525H144.911ZM161.368 25L165.75 8.0145H170.534L174.881 25H171.764L168.13 9.889H168.153L164.485 25H161.368ZM164.197 20.8715V18.445H172.086V20.8715H164.197ZM177.112 25V8.0375H180.102V25H177.112Z" fill="#5D7285"/>
<defs>
<linearGradient id="paint0_linear_3753_1788" x1="19" y1="0" x2="19" y2="38" gradientUnits="userSpaceOnUse">
<stop stop-color="#116AD3"/>
<stop offset="1" stop-color="#0D2056"/>
</linearGradient>
<linearGradient id="paint1_linear_3753_1788" x1="34.8615" y1="2.36194" x2="29.8011" y2="9.08334" gradientUnits="userSpaceOnUse">
<stop offset="1" stop-color="#02347E"/>
</linearGradient>
<clipPath id="clip0_3753_1788">
<rect width="38" height="38" fill="white"/>
</clipPath>
</defs>
</svg>
