<svg width="18" height="18" viewBox="0 0 18 18" fill="none" xmlns="http://www.w3.org/2000/svg">
<path d="M0 2.25C0 1.00898 1.00898 0 2.25 0H7.875V4.5C7.875 5.12227 8.37773 5.625 9 5.625H13.5V10.6875H6.1875C4.94648 10.6875 3.9375 11.6965 3.9375 12.9375V18H2.25C1.00898 18 0 16.991 0 15.75V2.25ZM13.5 4.5H9V0L13.5 4.5ZM6.1875 12.375H7.3125C8.39883 12.375 9.28125 13.2574 9.28125 14.3438C9.28125 15.4301 8.39883 16.3125 7.3125 16.3125H6.75V17.4375C6.75 17.7469 6.49687 18 6.1875 18C5.87813 18 5.625 17.7469 5.625 17.4375V15.75V12.9375C5.625 12.6281 5.87813 12.375 6.1875 12.375ZM7.3125 15.1875C7.78008 15.1875 8.15625 14.8113 8.15625 14.3438C8.15625 13.8762 7.78008 13.5 7.3125 13.5H6.75V15.1875H7.3125ZM10.6875 12.375H11.8125C12.7441 12.375 13.5 13.1309 13.5 14.0625V16.3125C13.5 17.2441 12.7441 18 11.8125 18H10.6875C10.3781 18 10.125 17.7469 10.125 17.4375V12.9375C10.125 12.6281 10.3781 12.375 10.6875 12.375ZM11.8125 16.875C12.1219 16.875 12.375 16.6219 12.375 16.3125V14.0625C12.375 13.7531 12.1219 13.5 11.8125 13.5H11.25V16.875H11.8125ZM14.625 12.9375C14.625 12.6281 14.8781 12.375 15.1875 12.375H16.875C17.1844 12.375 17.4375 12.6281 17.4375 12.9375C17.4375 13.2469 17.1844 13.5 16.875 13.5H15.75V14.625H16.875C17.1844 14.625 17.4375 14.8781 17.4375 15.1875C17.4375 15.4969 17.1844 15.75 16.875 15.75H15.75V17.4375C15.75 17.7469 15.4969 18 15.1875 18C14.8781 18 14.625 17.7469 14.625 17.4375V15.1875V12.9375Z" fill="white"/>
</svg>
