<svg width="20" height="17" viewBox="0 0 20 17" fill="none" xmlns="http://www.w3.org/2000/svg">
<path d="M5.94141 0.245456C6.32813 0.593113 6.35938 1.18296 6.01172 1.56968L3.19922 4.69468C3.02734 4.88608 2.78516 4.99936 2.52734 5.00327C2.26953 5.00717 2.02344 4.90952 1.83984 4.72983L0.273438 3.16733C-0.0898438 2.80014 -0.0898438 2.20639 0.273438 1.83921C0.636719 1.47202 1.23438 1.47202 1.59766 1.83921L2.46094 2.70249L4.61328 0.311863C4.96094 -0.074856 5.55078 -0.106106 5.9375 0.24155L5.94141 0.245456ZM5.94141 6.49546C6.32813 6.84311 6.35938 7.43296 6.01172 7.81968L3.19922 10.9447C3.02734 11.1361 2.78516 11.2494 2.52734 11.2533C2.26953 11.2572 2.02344 11.1595 1.83984 10.9798L0.273438 9.41733C-0.09375 9.05014 -0.09375 8.45639 0.273438 8.09311C0.640625 7.72983 1.23438 7.72593 1.59766 8.09311L2.46094 8.95639L4.61328 6.56577C4.96094 6.17905 5.55078 6.1478 5.9375 6.49546H5.94141ZM8.75 2.50327C8.75 1.81186 9.30859 1.25327 10 1.25327H18.75C19.4414 1.25327 20 1.81186 20 2.50327C20 3.19468 19.4414 3.75327 18.75 3.75327H10C9.30859 3.75327 8.75 3.19468 8.75 2.50327ZM8.75 8.75327C8.75 8.06186 9.30859 7.50327 10 7.50327H18.75C19.4414 7.50327 20 8.06186 20 8.75327C20 9.44468 19.4414 10.0033 18.75 10.0033H10C9.30859 10.0033 8.75 9.44468 8.75 8.75327ZM6.25 15.0033C6.25 14.3119 6.80859 13.7533 7.5 13.7533H18.75C19.4414 13.7533 20 14.3119 20 15.0033C20 15.6947 19.4414 16.2533 18.75 16.2533H7.5C6.80859 16.2533 6.25 15.6947 6.25 15.0033ZM1.875 13.1283C2.37228 13.1283 2.84919 13.3258 3.20083 13.6774C3.55246 14.0291 3.75 14.506 3.75 15.0033C3.75 15.5005 3.55246 15.9775 3.20083 16.3291C2.84919 16.6807 2.37228 16.8783 1.875 16.8783C1.37772 16.8783 0.900805 16.6807 0.549175 16.3291C0.197544 15.9775 -1.11759e-08 15.5005 -1.11759e-08 15.0033C-1.11759e-08 14.506 0.197544 14.0291 0.549175 13.6774C0.900805 13.3258 1.37772 13.1283 1.875 13.1283Z" fill="#EA580C"/>
</svg>
