<svg width="30" height="21" viewBox="0 0 30 21" fill="none" xmlns="http://www.w3.org/2000/svg">
<path d="M14.9997 0C14.6201 0 14.2451 0.0656249 13.8888 0.192187L0.74037 4.94062C0.295057 5.10469 -0.00025505 5.52656 -0.00025505 6C-0.00025505 6.47344 0.295057 6.89531 0.74037 7.05938L3.45443 8.03906C2.68568 9.24844 2.24974 10.6781 2.24974 12.1828V13.5C2.24974 14.8313 1.74349 16.2047 1.20443 17.2875C0.899745 17.8969 0.55287 18.4969 0.149745 19.05C-0.000255048 19.2516 -0.0424425 19.5141 0.0419324 19.7531C0.126307 19.9922 0.323182 20.1703 0.566932 20.2313L3.56693 20.9813C3.76381 21.0328 3.97474 20.9953 4.14818 20.8875C4.32162 20.7797 4.44349 20.6016 4.48099 20.4C4.88412 18.3938 4.68256 16.5938 4.38256 15.3047C4.23256 14.6391 4.03099 13.9594 3.74974 13.3359V12.1828C3.74974 10.7672 4.22787 9.43125 5.05756 8.3625C5.66224 7.63594 6.44506 7.05 7.36381 6.68906L14.7232 3.79688C15.1076 3.64687 15.5435 3.83437 15.6935 4.21875C15.8435 4.60313 15.656 5.03906 15.2716 5.18906L7.91225 8.08125C7.331 8.31094 6.82006 8.6625 6.40287 9.09375L13.8841 11.7938C14.2404 11.9203 14.6154 11.9859 14.9951 11.9859C15.3747 11.9859 15.7497 11.9203 16.106 11.7938L29.2591 7.05938C29.7044 6.9 29.9997 6.47344 29.9997 6C29.9997 5.52656 29.7044 5.10469 29.2591 4.94062L16.1107 0.192187C15.7544 0.0656249 15.3794 0 14.9997 0ZM5.99975 17.625C5.99975 19.2797 10.031 21 14.9997 21C19.9685 21 23.9997 19.2797 23.9997 17.625L23.2826 10.8094L16.6169 13.2188C16.0966 13.4062 15.5482 13.5 14.9997 13.5C14.4513 13.5 13.8982 13.4062 13.3826 13.2188L6.71693 10.8094L5.99975 17.625Z" fill="#CA8A04"/>
</svg>
