<svg width="48" height="48" viewBox="0 0 48 48" fill="none" xmlns="http://www.w3.org/2000/svg">
<g clip-path="url(#clip0_4927_2577)">
<path d="M14.6719 41.9719L13.4906 44.7375C11.7375 43.8469 10.125 42.75 8.6625 41.4656L10.7906 39.3375C11.9625 40.3594 13.2656 41.25 14.6719 41.9719ZM3.80625 25.5H0.796875C0.928125 27.4875 1.30313 29.4094 1.89375 31.2281L4.6875 30.1125C4.22813 28.6406 3.91875 27.0938 3.80625 25.5ZM3.80625 22.5C3.9375 20.7375 4.29375 19.0312 4.84688 17.4281L2.08125 16.2469C1.37813 18.2156 0.9375 20.3156 0.796875 22.5H3.80625ZM6.02813 14.6719C6.75938 13.275 7.64062 11.9719 8.6625 10.7812L6.53437 8.65313C5.25 10.1156 4.14375 11.7281 3.2625 13.4813L6.02813 14.6719ZM37.2188 39.3375C35.9156 40.4625 34.4625 41.4281 32.8969 42.1875L34.0125 44.9812C35.9531 44.0531 37.7438 42.8625 39.3469 41.4563L37.2188 39.3375ZM10.7812 8.6625C12.0844 7.5375 13.5375 6.57188 15.1031 5.8125L13.9875 3.01875C12.0469 3.94688 10.2563 5.1375 8.6625 6.54375L10.7812 8.6625ZM41.9719 33.3281C41.2406 34.725 40.3594 36.0281 39.3375 37.2188L41.4656 39.3469C42.75 37.8844 43.8563 36.2625 44.7375 34.5188L41.9719 33.3281ZM44.1937 25.5C44.0625 27.2625 43.7062 28.9688 43.1531 30.5719L45.9187 31.7531C46.6219 29.775 47.0625 27.675 47.1937 25.4906H44.1937V25.5ZM30.1125 43.3125C28.6406 43.7812 27.0938 44.0812 25.5 44.1937V47.2031C27.4875 47.0719 29.4094 46.6969 31.2281 46.1062L30.1125 43.3125ZM22.5 44.1937C20.7375 44.0625 19.0312 43.7062 17.4281 43.1531L16.2469 45.9187C18.225 46.6219 20.325 47.0625 22.5094 47.1937V44.1937H22.5ZM43.3125 17.8875C43.7812 19.3594 44.0812 20.9062 44.1937 22.5H47.2031C47.0719 20.5125 46.6969 18.5906 46.1062 16.7719L43.3125 17.8875ZM8.6625 37.2188C7.5375 35.9156 6.57188 34.4625 5.8125 32.8969L3.01875 34.0125C3.94688 35.9531 5.1375 37.7438 6.54375 39.3469L8.6625 37.2188ZM25.5 3.80625C27.2625 3.9375 28.9594 4.29375 30.5719 4.84688L31.7531 2.08125C29.7844 1.37813 27.6844 0.9375 25.5 0.796875V3.80625ZM17.8875 4.6875C19.3594 4.21875 20.9062 3.91875 22.5 3.80625V0.796875C20.5125 0.928125 18.5906 1.30313 16.7719 1.89375L17.8875 4.6875ZM41.4656 8.65313L39.3375 10.7812C40.4625 12.0844 41.4281 13.5375 42.1969 15.1031L44.9906 13.9875C44.0625 12.0469 42.8719 10.2563 41.4656 8.65313ZM37.2188 8.6625L39.3469 6.53437C37.8844 5.25 36.2719 4.14375 34.5188 3.2625L33.3375 6.02813C34.725 6.75938 36.0375 7.64062 37.2188 8.6625Z" fill="white"/>
<path d="M24 36.75C25.4497 36.75 26.625 35.5747 26.625 34.125C26.625 32.6753 25.4497 31.5 24 31.5C22.5503 31.5 21.375 32.6753 21.375 34.125C21.375 35.5747 22.5503 36.75 24 36.75Z" fill="white"/>
<path d="M24.7216 29.25H23.2216C22.6028 29.25 22.0966 28.7437 22.0966 28.125C22.0966 21.4688 29.3528 22.1344 29.3528 18.0187C29.3528 16.1437 27.6841 14.25 23.9716 14.25C21.2435 14.25 19.8185 15.15 18.4216 16.9406C18.056 17.4094 17.381 17.5031 16.9028 17.1656L15.6747 16.3031C15.1497 15.9375 15.0278 15.1969 15.431 14.6906C17.4185 12.1406 19.781 10.5 23.981 10.5C28.8841 10.5 33.1122 13.2937 33.1122 18.0187C33.1122 24.3562 25.856 23.9719 25.856 28.125C25.8466 28.7437 25.3403 29.25 24.7216 29.25Z" fill="white"/>
</g>
<defs>
<clipPath id="clip0_4927_2577">
<path d="M0 0H48V48H0V0Z" fill="white"/>
</clipPath>
</defs>
</svg>
